<?xml version="1.0" encoding="UTF-8"?>
<svg width="150px" height="150px" viewBox="0 0 150 150" version="1.1" xmlns="http://www.w3.org/2000/svg" xmlns:xlink="http://www.w3.org/1999/xlink">
    <title>Artboard Copy 5</title>
    <g id="Artboard-Copy-5" stroke="none" stroke-width="1" fill="none" fill-rule="evenodd">
        <path d="M42.8571045,53.571403 C50.7254175,53.571403 57.1428359,47.1539847 57.1428359,39.2856717 C57.1428359,31.4173588 50.7254175,24.9999404 42.8571045,24.9999404 C34.9887916,24.9999404 28.5713732,31.4173588 28.5713732,39.2856717 C28.5713732,47.1539847 34.9887916,53.571403 42.8571045,53.571403 Z M107.142895,53.571403 C115.011208,53.571403 121.428627,47.1539847 121.428627,39.2856717 C121.428627,31.4173588 115.011208,24.9999404 107.142895,24.9999404 C99.2745825,24.9999404 92.8571641,31.4173588 92.8571641,39.2856717 C92.8571641,47.1539847 99.2745825,53.571403 107.142895,53.571403 Z M75,82.1428657 C86.8303712,82.1428657 96.428597,72.5446399 96.428597,60.7142687 C96.428597,48.8838974 86.8303712,39.2856717 75,39.2856717 C63.1696288,39.2856717 53.571403,48.8838974 53.571403,60.7142687 C53.571403,72.5446399 63.1696288,82.1428657 75,82.1428657 Z M39.7321008,82.1428657 C43.4709446,77.6785746 48.7164865,75.1674109 54.5200649,75 C51.6182757,70.8147272 49.9999702,65.7923997 49.9999702,60.7142687 C49.9999702,59.4865886 50.1115775,58.2589086 50.2789884,57.0312286 C47.879432,57.8682831 45.4240719,58.3147123 42.8571045,58.3147123 C35.3236134,58.3147123 29.5200351,53.571403 28.3481587,53.571403 C21.7443054,53.571403 21.4394031,66.7507465 21.4285076,72.2050654 L21.4285076,73.2700872 L21.4285076,73.2700872 C21.4285076,79.464291 26.6740495,82.1428657 32.2544133,82.1428657 L39.7321008,82.1428657 Z M117.745587,82.1428657 C123.32595,82.1428657 128.571492,79.464291 128.571492,73.2700872 L128.571492,72.2050654 C128.560597,66.7507465 128.255695,53.571403 121.651841,53.571403 C120.479965,53.571403 114.676387,58.3147123 107.142895,58.3147123 C104.575928,58.3147123 102.120568,57.8682831 99.7210116,57.0312286 C99.8884225,58.2589086 100.00003,59.4865886 100.00003,60.7142687 C100.00003,65.7923997 98.3817243,70.8147272 95.4799351,75 C101.283513,75.1674109 106.529055,77.6785746 110.267899,82.1428657 L117.745587,82.1428657 Z M99.3861898,125.00006 C108.314772,125.00006 114.285761,119.587107 114.285761,110.546917 C114.285761,97.9352952 111.328168,78.5714328 94.9777024,78.5714328 C93.0803787,78.5714328 86.1607276,86.3281385 75,86.3281385 C63.8392724,86.3281385 56.9196213,78.5714328 55.0222976,78.5714328 C38.6718317,78.5714328 35.7142389,97.9352952 35.7142389,110.546917 C35.7142389,119.587107 41.6852281,125.00006 50.6138102,125.00006 L99.3861898,125.00006 Z" id="icon-players" fill="#E83411" fill-rule="nonzero"></path>
    </g>
</svg>